<?xml version="1.0" standalone="no"?>
<!DOCTYPE svg PUBLIC "-//W3C//DTD SVG 20010904//EN"
 "http://www.w3.org/TR/2001/REC-SVG-20010904/DTD/svg10.dtd">
<svg version="1.0" xmlns="http://www.w3.org/2000/svg"
 width="500.000000pt" height="500.000000pt" viewBox="0 0 500.000000 500.000000"
 preserveAspectRatio="xMidYMid meet">

<g transform="translate(0.000000,500.000000) scale(0.100000,-0.100000)"
fill="#000000" stroke="none">
<path d="M1865 3529 c-252 -20 -438 -105 -698 -319 -68 -57 -156 -122 -193
-144 -61 -37 -73 -49 -102 -107 -27 -53 -34 -82 -38 -145 l-5 -79 30 61 c109
217 227 252 1016 300 149 9 272 18 274 20 2 2 -11 4 -30 4 -157 0 -515 23
-521 33 -4 7 -8 41 -9 77 -1 110 -14 114 -29 11 -11 -78 -17 -94 -34 -101 -12
-5 -84 -16 -161 -25 -77 -9 -157 -19 -177 -22 -22 -3 -38 -1 -38 4 0 20 124
145 182 184 172 117 387 179 623 179 173 0 198 -18 425 -308 l25 -32 280 -9
c211 -8 358 -20 595 -48 173 -20 347 -37 385 -36 39 0 151 2 250 3 134 2 205
-1 279 -14 54 -9 101 -14 104 -11 3 3 3 5 -1 5 -3 0 -59 14 -123 30 -302 78
-684 115 -1334 129 -398 8 -392 7 -451 83 -18 24 -66 80 -107 126 -41 45 -73
84 -71 86 2 2 117 -3 254 -10 256 -14 375 -30 479 -65 62 -21 217 -96 305
-149 30 -17 55 -29 58 -27 10 11 -142 113 -242 162 -189 94 -397 136 -770 155
-223 11 -285 11 -430 -1z"/>
<path d="M1860 3049 c-327 -17 -609 -46 -648 -68 -14 -8 -12 -12 18 -24 31
-13 64 -11 305 14 439 46 627 59 980 66 184 3 332 10 329 15 -6 10 -771 8
-984 -3z"/>
<path d="M3111 3018 c-12 -34 -3 -52 60 -121 40 -44 75 -71 111 -87 67 -29
184 -50 273 -48 l70 0 -59 9 c-95 14 -176 37 -241 69 -61 29 -165 122 -165
147 0 16 32 13 216 -18 169 -28 216 -49 298 -133 68 -70 68 -70 47 -28 -27 54
-95 128 -135 149 -30 16 -386 83 -438 83 -20 0 -31 -6 -37 -22z"/>
<path d="M3790 2981 c-51 -10 -60 -18 -60 -52 0 -63 75 -167 154 -213 71 -41
158 -59 286 -59 72 1 136 7 170 17 l55 15 -55 -7 c-30 -4 -109 -7 -175 -6 -99
0 -130 4 -176 22 -74 29 -136 85 -165 146 -30 64 -30 84 -1 91 13 4 135 5 270
3 l247 -3 26 -27 c15 -14 32 -48 40 -75 l13 -48 0 41 c1 51 -30 100 -79 125
-20 11 -78 22 -139 29 -113 11 -355 12 -411 1z"/>
<path d="M2760 2941 c-53 -17 -109 -51 -135 -83 -37 -44 -75 -126 -75 -163 0
-29 1 -28 34 21 88 131 214 181 343 138 54 -19 118 -60 181 -117 30 -29 42
-35 42 -23 0 55 -91 158 -179 202 -58 29 -162 41 -211 25z"/>
<path d="M664 2916 c-39 -17 -72 -59 -80 -100 -23 -125 202 -311 451 -375 209
-53 429 -71 869 -71 600 0 1143 37 1686 115 205 30 472 77 466 82 -2 2 -113
-12 -247 -31 -293 -42 -369 -50 -744 -76 -738 -50 -1301 -48 -1755 6 -325 38
-549 137 -642 283 -50 79 -31 133 57 165 l40 15 -35 0 c-19 0 -49 -6 -66 -13z"/>
<path d="M1020 2862 c-21 -21 -43 -55 -49 -77 -12 -44 -13 -146 -2 -185 6 -21
9 -17 15 25 15 104 35 155 69 175 67 41 125 12 177 -89 33 -64 36 -59 15 24
-18 66 -52 117 -99 146 -49 30 -83 25 -126 -19z"/>
<path d="M3465 2574 c-77 -12 -1492 -54 -1855 -54 -167 0 -279 -4 -270 -9 50
-29 783 -41 1247 -21 409 18 1045 70 1062 86 5 5 -154 3 -184 -2z"/>
<path d="M4015 2489 c-117 -27 -328 -66 -475 -88 -271 -40 -294 -52 -47 -26
271 29 537 81 702 139 104 36 54 29 -180 -25z"/>
<path d="M1510 2009 l0 -200 43 3 42 3 3 93 c3 87 4 93 27 104 44 20 55 -2 55
-109 l0 -94 43 3 42 3 0 116 c0 99 -3 120 -18 137 -24 27 -64 33 -109 17 l-38
-13 0 69 0 69 -45 0 -45 0 0 -201z"/>
<path d="M1820 2171 l0 -41 46 0 45 0 -3 38 c-3 36 -4 37 -45 40 l-43 3 0 -40z"/>
<path d="M2212 2035 c3 -199 8 -212 87 -222 l41 -6 0 36 c0 26 -5 36 -20 40
-19 5 -20 14 -20 166 l0 161 -46 0 -45 0 3 -175z"/>
<path d="M3730 2170 l0 -41 43 3 c41 3 42 4 42 38 0 34 -1 35 -42 38 l-43 3 0
-41z"/>
<path d="M880 2193 c0 -19 110 -367 118 -375 5 -5 31 -8 58 -6 l48 3 58 190
c32 105 58 191 58 193 0 1 -20 2 -44 2 l-45 0 -15 -52 c-8 -29 -25 -89 -37
-133 -12 -44 -25 -83 -28 -87 -4 -4 -24 55 -45 132 l-38 140 -44 0 c-24 0 -44
-3 -44 -7z"/>
<path d="M1300 2090 c-62 -15 -76 -48 -70 -175 1 -22 8 -50 16 -62 20 -31 80
-47 148 -39 54 7 56 9 56 37 0 29 -1 29 -58 29 -53 0 -82 11 -82 32 0 4 18 8
39 8 45 0 92 15 103 33 12 19 9 92 -5 111 -7 9 -30 21 -52 26 -46 11 -48 11
-95 0z m84 -76 c9 -24 -12 -44 -45 -44 -29 0 -35 12 -23 44 8 21 60 21 68 0z"/>
<path d="M2023 2089 c-43 -12 -63 -45 -70 -111 -11 -121 45 -180 156 -162 51
8 56 11 59 37 3 26 2 27 -50 27 -30 0 -59 5 -66 12 -15 15 -16 92 -2 119 9 15
22 19 65 19 52 0 55 1 55 25 0 14 -6 27 -12 30 -34 10 -106 12 -135 4z"/>
<path d="M2444 2090 c-56 -17 -69 -42 -69 -135 0 -74 3 -86 23 -108 29 -30 76
-40 148 -31 51 6 54 8 54 35 0 28 -1 28 -67 31 -53 2 -68 7 -71 19 -2 13 8 17
54 21 67 6 94 30 94 84 0 68 -82 109 -166 84z m81 -90 c0 -21 -5 -26 -32 -28
-29 -3 -33 0 -33 21 0 31 9 39 40 35 19 -2 25 -9 25 -28z"/>
<path d="M2785 2085 c-25 -9 -43 -11 -49 -5 -6 6 -27 10 -48 10 l-39 0 3 -137
3 -138 43 -3 42 -3 0 95 c0 86 2 96 20 106 12 6 29 8 40 5 17 -5 20 -18 22
-103 l3 -97 43 -3 42 -3 0 95 c0 86 2 96 20 106 12 6 29 8 40 5 17 -5 20 -18
22 -103 l3 -97 43 -3 42 -3 0 110 c0 130 -9 157 -58 171 -28 7 -44 6 -77 -9
-33 -15 -44 -16 -60 -6 -34 22 -59 24 -100 10z"/>
<path d="M3545 2085 c-25 -9 -43 -11 -49 -5 -6 6 -25 10 -43 10 l-33 0 0 -141
0 -140 43 3 42 3 3 97 c3 94 3 96 28 102 45 12 54 -7 54 -110 l0 -94 40 0 40
0 0 119 c0 99 -3 122 -17 139 -25 28 -61 33 -108 17z"/>
<path d="M1820 1949 l0 -140 43 3 42 3 3 138 3 137 -46 0 -45 0 0 -141z"/>
<path d="M3158 2083 c-11 -3 -18 -14 -18 -29 0 -22 4 -24 51 -24 56 0 89 -13
89 -35 0 -11 -13 -15 -55 -15 -46 0 -60 -4 -80 -25 -34 -33 -34 -87 0 -120 28
-29 63 -32 106 -9 28 14 32 14 43 -1 8 -11 23 -16 41 -13 l30 3 3 85 c6 165
-10 191 -120 189 -40 -1 -81 -3 -90 -6z m122 -173 c0 -23 -5 -31 -24 -36 -31
-7 -46 1 -46 26 0 21 25 39 53 40 12 0 17 -8 17 -30z"/>
<path d="M3730 1950 l0 -140 40 0 40 0 0 140 0 140 -40 0 -40 0 0 -140z"/>
<path d="M3893 2083 c-7 -2 -13 -16 -13 -29 0 -22 4 -24 49 -24 62 0 81 -7 81
-31 0 -16 -8 -19 -49 -19 -69 0 -101 -27 -101 -86 0 -75 48 -102 125 -70 29
13 35 13 46 0 6 -8 24 -14 40 -14 l29 0 0 115 c0 110 -1 117 -25 140 -21 22
-32 25 -97 24 -40 0 -79 -3 -85 -6z m115 -175 c-4 -40 -40 -52 -57 -19 -13 24
9 51 40 51 17 0 20 -6 17 -32z"/>
</g>
</svg>
