<?xml version="1.0" standalone="no"?>
<!DOCTYPE svg PUBLIC "-//W3C//DTD SVG 20010904//EN"
 "http://www.w3.org/TR/2001/REC-SVG-20010904/DTD/svg10.dtd">
<svg version="1.0" xmlns="http://www.w3.org/2000/svg"
 width="1280.000000pt" height="723.000000pt" viewBox="0 0 1280.000000 723.000000"
 preserveAspectRatio="xMidYMid meet">
<g transform="translate(0.000000,723.000000) scale(0.100000,-0.100000)"
fill="#000000" stroke="none">
<path d="M8578 7209 c-53 -28 -72 -69 -64 -141 l6 -57 -68 -39 c-160 -94 -170
-98 -191 -84 -39 23 -94 8 -135 -37 -28 -31 -14 -79 50 -172 29 -44 54 -85 54
-92 0 -15 -3108 -1911 -3134 -1911 -16 -1 -37 44 -121 254 -147 366 -139 349
-172 347 -27 -2 -29 1 -230 493 -111 272 -202 502 -202 511 -1 9 21 34 49 55
28 21 50 45 50 53 0 8 10 26 23 39 l22 25 -23 -14 c-21 -13 -25 -12 -41 10
l-18 23 -161 -22 c-146 -21 -161 -25 -170 -46 -6 -12 -21 -24 -34 -27 l-23 -4
24 -2 c20 -1 23 -5 19 -32 -5 -35 2 -41 79 -58 48 -12 53 -16 71 -59 133 -312
403 -999 398 -1014 -3 -12 21 -82 56 -167 97 -231 197 -501 192 -514 -10 -24
-654 -502 -675 -502 -32 0 -64 47 -50 72 8 17 5 25 -19 48 -23 22 -33 26 -42
17 -17 -17 -23 -15 -63 19 -30 27 -35 37 -30 59 5 23 1 32 -24 49 -25 18 -33
20 -49 10 -27 -17 -94 35 -90 70 2 16 -6 30 -25 45 -24 17 -31 19 -48 8 -18
-12 -26 -10 -59 12 -25 17 -40 34 -42 51 -2 16 -14 33 -30 43 -23 14 -30 14
-52 2 -23 -12 -29 -10 -66 14 -30 19 -39 32 -35 45 4 13 -4 22 -31 35 -34 16
-38 16 -54 1 -17 -15 -22 -15 -64 4 -34 14 -46 26 -46 41 0 30 -58 55 -81 34
-20 -18 -41 -18 -84 0 -24 10 -35 22 -35 35 0 31 -58 44 -86 20 -18 -17 -25
-18 -65 -6 -32 9 -45 19 -47 34 -2 15 -13 23 -39 28 -31 5 -39 3 -53 -15 -15
-19 -21 -21 -61 -13 -31 6 -47 15 -54 31 -13 30 -76 31 -96 1 -13 -18 -20 -20
-61 -14 -34 5 -49 13 -53 26 -9 27 -81 27 -90 0 -4 -13 -19 -21 -52 -26 -41
-6 -50 -4 -64 14 -24 30 -81 29 -94 -1 -7 -16 -23 -25 -54 -31 -40 -8 -46 -6
-61 13 -14 18 -22 20 -53 15 -27 -5 -37 -12 -37 -26 0 -19 -17 -29 -72 -43
-20 -4 -32 -1 -45 13 -16 16 -23 17 -52 7 -21 -7 -35 -18 -37 -30 -5 -36 -82
-59 -112 -33 -26 22 -88 -1 -84 -32 3 -17 -6 -25 -44 -41 -43 -19 -48 -19 -64
-5 -16 14 -21 14 -53 -1 -26 -12 -36 -23 -34 -38 1 -14 -10 -27 -40 -43 -36
-20 -45 -22 -62 -11 -28 17 -75 -10 -79 -47 -2 -17 -17 -34 -42 -51 -33 -22
-41 -24 -59 -12 -17 11 -24 9 -48 -9 -20 -14 -27 -28 -25 -45 3 -34 -67 -85
-94 -70 -30 17 -75 -21 -71 -60 2 -24 -5 -36 -35 -61 -32 -25 -40 -28 -53 -17
-14 12 -21 9 -47 -18 -26 -26 -29 -33 -19 -46 11 -13 9 -20 -8 -44 -32 -46
-47 -55 -70 -43 -17 9 -23 6 -45 -21 -16 -21 -22 -36 -16 -42 16 -16 11 -36
-17 -70 -16 -19 -35 -31 -51 -31 -15 0 -33 -10 -46 -28 -17 -24 -19 -31 -8
-48 12 -18 10 -26 -12 -60 -18 -27 -34 -39 -50 -39 -35 0 -62 -45 -46 -75 11
-20 9 -30 -12 -67 -17 -31 -29 -42 -44 -40 -15 2 -25 -7 -37 -34 -17 -34 -17
-37 -1 -49 17 -12 16 -15 -3 -61 -15 -39 -24 -49 -43 -49 -18 0 -26 -9 -36
-38 -11 -32 -11 -39 1 -44 18 -6 19 -38 4 -82 -8 -22 -17 -31 -34 -31 -18 0
-25 -8 -33 -40 -8 -34 -7 -41 10 -52 19 -13 20 -17 6 -63 -10 -38 -19 -51 -35
-53 -32 -5 -41 -67 -13 -90 30 -24 19 -99 -16 -113 -32 -12 -35 -78 -4 -97 20
-12 25 -46 14 -89 -4 -16 -14 -23 -30 -23 -22 0 -24 -4 -24 -45 0 -39 3 -45
20 -45 40 0 56 -101 20 -120 -15 -8 -20 -21 -20 -50 0 -32 4 -39 22 -42 19 -2
24 -12 31 -53 7 -43 6 -51 -12 -65 -17 -12 -19 -22 -15 -52 5 -28 12 -38 25
-38 21 0 33 -20 42 -67 5 -25 2 -35 -13 -46 -17 -12 -18 -18 -9 -50 7 -27 15
-37 30 -37 13 0 25 -11 35 -35 18 -43 18 -64 0 -84 -21 -23 4 -81 34 -81 15 0
27 -12 41 -46 19 -43 20 -47 4 -64 -16 -18 -16 -21 2 -52 14 -24 25 -32 41
-30 31 4 69 -71 52 -103 -10 -18 -9 -28 5 -54 9 -19 23 -31 33 -30 32 3 38 -1
61 -41 18 -32 20 -42 10 -58 -18 -29 21 -81 55 -75 18 4 30 -3 52 -32 24 -31
26 -40 15 -56 -18 -29 23 -80 59 -73 20 3 33 -4 60 -31 29 -30 33 -38 23 -54
-10 -16 -8 -24 9 -46 17 -22 26 -26 51 -21 25 5 37 1 64 -26 25 -24 31 -37 27
-55 -9 -32 31 -65 69 -57 40 8 101 -39 93 -71 -5 -18 1 -28 25 -46 23 -16 33
-19 42 -10 16 16 33 14 72 -12 26 -16 35 -29 35 -49 0 -37 49 -65 79 -46 30
19 112 -22 108 -54 -3 -32 46 -55 79 -38 18 10 29 10 56 0 45 -18 60 -31 54
-46 -12 -30 68 -57 88 -29 11 16 17 16 52 5 46 -15 59 -25 59 -48 0 -11 12
-20 38 -26 31 -8 39 -7 51 9 20 27 95 10 113 -25 17 -34 72 -46 91 -19 23 33
103 22 121 -17 14 -32 76 -35 86 -4 5 16 15 20 56 20 43 0 51 -3 61 -25 16
-35 78 -36 93 -2 8 18 19 23 62 25 44 3 52 0 58 -18 10 -31 72 -28 84 4 15 38
102 51 120 18 15 -28 77 -16 94 18 18 35 93 52 113 25 12 -16 20 -17 51 -9 26
6 37 14 35 25 -3 21 13 33 62 49 35 11 41 11 52 -5 11 -15 19 -16 46 -9 20 6
34 17 37 29 5 30 19 43 58 56 27 9 40 8 58 -1 31 -17 86 10 78 39 -4 16 4 25
41 43 39 19 50 20 67 10 29 -18 79 12 79 48 0 18 10 32 35 47 37 24 65 30 65
13 0 -16 19 -12 51 11 22 16 28 26 23 44 -8 33 53 79 94 71 35 -8 78 31 68 61
-9 28 55 87 84 78 16 -5 29 0 50 20 24 23 27 30 17 46 -10 16 -6 24 23 54 26
27 40 35 58 30 33 -8 74 40 59 72 -15 33 35 97 69 90 19 -3 30 3 46 25 18 25
19 33 8 53 -11 20 -9 28 11 57 29 41 37 47 59 41 28 -7 56 52 40 82 -17 32 21
107 53 103 17 -2 26 6 39 32 16 31 16 35 1 52 -13 15 -14 22 -3 50 18 45 29
58 51 58 12 0 24 13 33 34 8 18 18 36 23 39 21 13 774 130 782 121 17 -17 322
-825 319 -842 -2 -13 -16 -18 -51 -20 l-47 -3 0 -60 0 -59 205 0 205 0 0 60 0
60 -58 0 c-32 0 -65 6 -74 13 -9 6 -84 212 -168 457 -84 245 -155 450 -157
457 -3 6 6 20 19 30 102 79 173 178 205 287 18 59 20 217 4 259 -21 55 -14 71
52 123 89 70 274 251 382 374 389 445 869 1149 1458 2141 286 482 370 597 511
707 89 69 228 162 242 162 7 0 31 -33 53 -74 39 -70 41 -76 35 -134 l-7 -60
54 -27 c68 -35 159 -121 213 -205 24 -36 117 -225 206 -420 189 -412 196 -436
130 -470 -45 -23 -67 -25 -72 -8 -4 10 -14 8 -42 -7 -30 -16 -36 -24 -31 -42
8 -33 -54 -78 -96 -69 -41 8 -80 -18 -77 -51 4 -37 -65 -92 -92 -75 -16 10
-24 7 -49 -14 -25 -21 -29 -29 -21 -44 8 -15 4 -26 -21 -55 -27 -31 -36 -35
-64 -29 -27 5 -36 1 -53 -21 -17 -21 -19 -30 -10 -45 10 -15 6 -24 -18 -54
-23 -28 -34 -35 -56 -31 -37 6 -71 -36 -63 -77 9 -39 -37 -100 -70 -92 -31 8
-69 -50 -52 -78 17 -27 -21 -92 -57 -96 -14 -2 -33 -13 -41 -25 -17 -24 -20
-57 -5 -57 16 0 12 -27 -10 -71 -16 -31 -26 -39 -43 -37 -14 2 -25 -5 -34 -22
-15 -30 -17 -60 -3 -60 14 0 12 -24 -6 -70 -12 -31 -22 -40 -39 -40 -18 0 -26
-8 -35 -36 -11 -32 -10 -38 5 -46 31 -18 1 -118 -35 -118 -13 0 -22 -11 -29
-37 -9 -32 -8 -38 10 -51 16 -11 19 -21 14 -45 -12 -58 -16 -66 -38 -69 -18
-2 -23 -11 -25 -42 -2 -28 1 -42 12 -48 30 -17 17 -118 -15 -118 -13 0 -19 -7
-19 -24 0 -13 -3 -32 -6 -41 -5 -11 0 -18 14 -22 27 -7 33 -26 26 -75 -5 -28
-13 -42 -25 -45 -26 -7 -27 -81 -1 -90 25 -10 32 -23 32 -71 0 -36 -4 -45 -20
-49 -32 -8 -23 -93 10 -93 22 0 30 -19 30 -70 0 -26 -6 -42 -16 -48 -26 -14
-11 -78 20 -86 18 -4 26 -17 35 -53 11 -42 10 -49 -5 -60 -26 -19 -8 -85 25
-93 18 -4 28 -17 39 -48 13 -39 12 -45 -3 -62 -15 -16 -15 -21 -1 -53 11 -28
19 -34 34 -30 16 4 24 -4 41 -43 19 -43 20 -49 6 -64 -14 -16 -14 -21 1 -54
14 -28 22 -34 39 -30 34 8 86 -97 53 -109 -10 -3 -8 -14 6 -41 16 -31 24 -36
43 -31 18 4 28 -2 50 -36 23 -34 25 -44 15 -60 -11 -17 -9 -25 9 -50 11 -16
28 -29 38 -28 31 3 39 -1 66 -37 24 -31 26 -40 16 -56 -11 -17 -9 -24 15 -49
20 -21 31 -26 43 -19 21 11 44 -2 71 -40 16 -22 19 -34 11 -48 -8 -15 -5 -24
18 -46 25 -24 31 -26 50 -15 18 12 24 10 56 -21 26 -25 34 -41 31 -56 -9 -33
34 -68 73 -59 42 9 104 -36 95 -70 -4 -17 2 -28 25 -44 26 -19 33 -20 51 -9
31 19 95 -19 95 -57 1 -37 47 -63 80 -45 39 21 118 -22 108 -58 -7 -28 49 -50
81 -32 38 20 116 -13 116 -49 0 -13 12 -23 36 -31 32 -11 38 -10 46 5 18 31
118 1 118 -35 0 -13 11 -22 37 -29 32 -9 38 -8 51 10 11 16 21 19 45 14 58
-12 66 -16 69 -38 2 -18 11 -23 42 -25 28 -2 42 1 48 12 17 30 118 15 118 -18
0 -15 64 -31 80 -21 6 3 10 12 10 20 0 19 27 25 75 17 32 -6 41 -12 43 -30 3
-20 8 -23 45 -20 33 2 43 7 46 23 5 28 19 35 69 35 36 0 45 -4 49 -20 8 -32
93 -23 93 10 0 22 19 30 70 30 26 0 42 -6 48 -16 14 -26 80 -11 84 19 2 16 15
25 52 35 46 13 51 13 63 -4 19 -26 85 -9 93 25 4 18 17 28 49 39 41 14 45 13
57 -3 12 -16 17 -17 51 -3 30 11 37 19 35 35 -2 17 7 26 44 42 43 19 49 20 64
6 16 -14 21 -14 54 1 29 14 34 22 30 40 -5 19 1 26 37 44 35 18 46 20 64 10
33 -18 88 15 80 47 -4 18 3 28 36 50 34 23 44 25 60 15 29 -19 83 20 75 53 -5
19 2 30 34 55 33 27 42 29 61 20 18 -10 25 -8 50 16 20 20 26 31 19 43 -11 21
2 44 41 71 24 18 32 20 45 9 13 -10 20 -7 46 18 27 27 28 33 17 51 -12 19 -10
25 21 57 24 25 41 34 55 31 12 -3 28 3 42 16 18 17 22 28 17 57 -4 30 -1 41
24 68 21 22 36 30 50 27 14 -4 26 3 42 26 20 28 21 33 6 48 -14 16 -13 21 11
61 21 35 29 42 50 38 33 -6 61 44 43 78 -21 39 22 118 58 108 28 -7 50 49 32
81 -21 40 15 122 51 114 7 -2 19 14 27 36 14 35 14 39 -2 48 -32 18 -3 118 34
118 30 0 43 59 19 85 -10 11 -16 29 -14 40 2 11 6 32 9 47 4 18 13 28 29 30
18 2 23 10 25 42 2 28 -1 42 -12 48 -30 17 -15 118 18 118 15 0 31 64 21 80
-3 6 -13 10 -20 10 -19 0 -27 36 -17 80 6 26 14 36 30 38 20 3 23 8 20 45 -2
33 -7 43 -23 46 -27 5 -35 19 -35 68 0 33 4 43 20 48 33 10 20 95 -14 95 -29
0 -37 95 -10 114 23 17 9 86 -17 86 -21 0 -34 21 -43 72 -5 29 -3 39 11 46 14
9 15 16 7 49 -6 26 -14 37 -25 35 -21 -3 -33 13 -49 62 -11 35 -11 41 5 52 15
11 15 17 5 48 -9 28 -17 36 -36 36 -20 0 -29 9 -45 46 -18 43 -18 48 -4 65 15
16 15 20 0 48 -11 22 -23 31 -40 31 -34 0 -74 74 -55 103 18 30 -16 89 -46 81
-18 -5 -28 2 -50 36 -24 35 -26 45 -16 61 18 29 -19 81 -55 77 -36 -4 -90 61
-74 90 17 31 -22 75 -59 67 -22 -5 -32 0 -59 30 -34 39 -36 46 -20 62 19 19
-36 66 -67 59 -36 -9 -89 36 -89 77 0 40 -43 74 -73 58 -30 -16 -102 38 -99
74 3 36 -44 66 -73 47 -17 -10 -26 -8 -61 14 -31 19 -40 30 -36 45 4 13 -4 25
-25 40 -26 19 -33 20 -54 9 -20 -11 -30 -10 -64 5 -38 17 -44 25 -41 52 1 7
-13 20 -30 29 -27 13 -36 14 -56 3 -36 -19 -107 8 -111 43 -4 32 -64 55 -83
32 -15 -18 -41 -18 -84 0 -24 10 -35 22 -35 35 0 28 -67 42 -85 17 -14 -19
-26 -20 -77 -5 -27 7 -38 16 -38 28 0 22 -19 31 -61 31 -19 0 -29 -5 -29 -15
0 -11 -12 -15 -44 -15 -57 0 -76 8 -76 31 0 16 -8 19 -45 19 -33 0 -45 -4 -45
-15 0 -35 -99 -33 -115 3 -8 17 -18 22 -48 22 -31 0 -39 -4 -47 -25 -8 -22
-15 -25 -61 -25 -43 0 -52 3 -56 21 -5 17 -11 20 -36 15 -16 -3 -34 -6 -38 -6
-5 0 -14 -11 -18 -24 -13 -34 -89 -44 -113 -15 -22 26 -88 18 -88 -12 0 -21
-21 -35 -72 -44 -29 -5 -38 -3 -46 11 -15 28 -84 8 -92 -26 -5 -19 -12 -25
-34 -25 -26 0 -32 7 -65 82 -42 96 -43 97 -70 88 -27 -8 -26 -20 5 -90 27 -63
25 -88 -6 -83 -17 2 -81 125 -308 588 -266 540 -290 585 -314 588 -24 3 -48
43 -244 408 -156 290 -222 403 -233 402 -10 -2 -24 14 -39 46 -20 40 -21 51
-10 62 7 7 94 60 192 117 143 82 183 110 198 138 35 63 8 137 -64 175 -35 18
-45 17 -90 -7z m-510 -1095 c19 -13 22 -22 16 -47 -11 -51 -80 -181 -127 -239
-106 -130 -201 -279 -522 -818 -537 -900 -1014 -1583 -1395 -1999 -105 -115
-316 -301 -340 -301 -9 0 -34 9 -56 19 -22 11 -52 23 -67 26 -15 4 -30 11 -33
16 -3 5 -12 73 -19 152 -39 392 -157 897 -330 1407 -33 99 -34 105 -18 121 10
9 625 387 1367 839 920 560 1362 824 1390 830 67 13 110 11 134 -6z m-5397
-1725 c53 -6 102 -15 109 -19 11 -7 -13 -159 -119 -762 -73 -414 -135 -761
-137 -770 -6 -22 -81 -25 -106 -5 -11 9 -51 220 -147 762 -72 413 -131 758
-131 767 0 24 27 30 164 37 142 7 235 5 367 -10z m7846 -4 c9 -16 8 -37 -37
-675 -16 -239 -35 -509 -41 -600 -16 -251 -19 -264 -51 -268 -32 -4 -31 -6
-123 207 -38 89 -89 232 -124 353 -129 442 -261 908 -261 922 0 18 41 30 175
50 148 23 148 23 307 25 120 1 149 -2 155 -14z m258 -26 c173 -35 414 -123
402 -147 -1 -4 -142 -321 -313 -704 -193 -437 -314 -698 -323 -698 -7 0 -31 5
-52 12 -39 11 -39 12 -39 62 0 46 19 327 80 1200 11 159 23 293 27 299 7 12
83 3 218 -24z m-8660 -11 c22 -101 265 -1510 261 -1517 -3 -5 -26 -14 -51 -21
-39 -11 -49 -11 -60 1 -21 21 -775 1331 -775 1346 0 27 255 133 440 183 135
36 178 38 185 8z m862 -22 c184 -53 443 -171 443 -202 0 -8 -162 -295 -361
-638 -352 -610 -361 -625 -413 -661 -46 -31 -57 -35 -75 -26 -12 7 -21 20 -21
30 0 20 258 1486 266 1514 7 24 25 22 161 -17z m6970 -336 c112 -387 126 -443
110 -437 -11 3 -80 151 -142 306 -19 48 -50 148 -69 222 -19 74 -42 151 -51
173 -21 50 -14 68 26 64 l32 -3 94 -325z m-4919 138 c126 -394 217 -770 262
-1072 14 -96 2 -118 -28 -49 -44 104 -232 602 -232 617 0 10 12 16 38 18 l37
3 0 60 0 60 -207 3 -208 2 0 -64 0 -65 87 -3 86 -3 144 -419 c79 -230 142
-424 139 -432 -4 -11 -40 -14 -180 -14 -97 0 -177 4 -181 9 -3 5 4 16 14 24
27 18 19 87 -10 87 -21 0 -33 20 -43 70 -5 27 -2 38 13 50 17 13 18 19 8 50
-8 24 -19 36 -34 38 -30 4 -59 85 -37 106 27 28 6 97 -29 93 -16 -2 -25 9 -41
46 -20 47 -20 50 -3 62 17 12 17 14 0 49 -12 27 -22 36 -35 33 -11 -3 -26 4
-38 20 -28 35 -34 62 -20 88 16 30 -11 75 -46 75 -16 0 -32 12 -50 39 -21 33
-23 42 -13 59 10 16 9 25 -11 57 -19 31 -21 39 -9 50 41 40 546 415 560 415
11 0 29 -42 67 -162z m4707 113 c17 -38 15 -71 -3 -71 -10 0 -42 76 -42 98 0
27 28 10 45 -27z m1606 -96 c160 -91 389 -266 389 -299 0 -10 -721 -767 -1005
-1055 l-64 -65 -40 27 c-23 15 -41 34 -41 41 0 16 607 1384 623 1404 13 16 20
13 138 -53z m-1840 -11 c16 -34 18 -48 9 -59 -8 -10 27 -100 154 -395 92 -209
166 -389 166 -398 0 -13 -5 -12 -24 8 -50 52 -540 736 -540 755 -1 14 24 35
94 77 52 32 100 58 108 58 7 0 22 -21 33 -46z m-8023 -21 c25 -37 749 -1293
757 -1315 8 -21 -78 -83 -99 -71 -21 12 -1159 968 -1175 986 -17 21 4 52 93
134 123 116 360 292 393 293 6 0 20 -12 31 -27z m2059 -49 c143 -97 333 -266
333 -296 0 -16 -1048 -818 -1069 -818 -6 0 -11 5 -11 10 0 9 598 1051 646
1128 8 12 19 22 24 22 5 0 39 -21 77 -46z m5710 -56 c11 -13 168 -228 350
-478 l331 -455 72 -166 c68 -158 79 -198 55 -206 -19 -6 -1284 847 -1285 866
0 40 225 285 365 397 43 35 82 64 85 64 4 0 16 -10 27 -22z m2590 -262 c113
-121 298 -398 291 -436 -3 -15 -1350 -679 -1380 -680 -14 0 -37 25 -62 67 -4
8 186 212 529 568 295 305 540 555 545 555 4 0 39 -33 77 -74z m-10307 -546
c324 -272 590 -499 590 -505 0 -17 -60 -95 -73 -95 -7 0 -336 118 -732 263
-837 305 -750 248 -659 433 84 170 249 411 275 402 5 -2 274 -226 599 -498z
m2554 308 c46 -70 178 -330 191 -375 4 -15 1 -25 -12 -31 -10 -5 -230 -87
-490 -181 l-471 -171 -182 0 c-141 0 -181 3 -178 13 6 18 1060 816 1079 817 8
0 37 -33 63 -72z m5306 -398 c344 -231 629 -426 634 -434 14 -20 -45 -112 -70
-108 -10 2 -347 84 -747 184 -443 109 -730 185 -733 193 -12 30 71 250 151
401 70 134 104 184 124 184 9 0 298 -189 641 -420z m2787 110 c25 -50 95 -257
113 -335 27 -114 39 -210 27 -221 -13 -12 -1476 -168 -1517 -162 -30 4 -58 74
-38 95 21 20 1362 673 1378 670 8 -1 25 -22 37 -47z m-10857 -384 c388 -141
709 -261 713 -265 12 -12 -10 -113 -26 -123 -17 -11 -1519 -10 -1536 1 -11 7
-13 31 -8 117 7 132 27 252 68 399 32 117 44 139 68 132 9 -3 333 -120 721
-261z m3000 165 c33 -109 54 -221 44 -230 -11 -11 -899 -19 -910 -8 -4 4 -5 9
-3 12 13 12 826 302 836 298 7 -3 22 -35 33 -72z m4876 -271 c401 -99 739
-185 752 -190 21 -9 22 -14 16 -62 -3 -29 -11 -58 -18 -64 -13 -14 -1504 -171
-1529 -161 -15 6 -17 24 -17 174 0 158 14 299 41 418 11 49 17 65 23 65 2 0
331 -81 732 -180z m-4043 -7 c4 -3 -24 -36 -63 -72 -38 -36 -87 -95 -108 -131
-37 -61 -42 -65 -79 -68 -27 -2 -44 2 -53 13 -7 8 -18 15 -25 15 -31 0 -35 93
-5 112 14 9 20 24 20 49 0 29 -5 38 -26 48 -21 9 -24 14 -14 26 10 12 44 15
180 15 91 0 170 -3 173 -7z m-773 -23 c6 -11 13 -72 17 -134 l6 -115 -28 -7
c-98 -25 -1504 46 -1542 77 -24 20 0 32 212 110 l200 74 255 5 c140 3 393 7
562 8 298 2 308 1 318 -18z m-1263 -6 c4 -11 -267 -115 -298 -114 -9 0 -22 14
-29 30 -11 26 -10 33 4 49 38 42 75 51 200 48 76 -1 121 -6 123 -13z m9219
-89 c12 -47 -3 -416 -20 -510 -9 -49 -21 -94 -26 -99 -6 -6 -1148 269 -1472
355 -37 10 -38 10 -38 60 0 36 4 51 16 56 16 6 1442 160 1501 162 27 1 34 -3
39 -24z m-10321 -197 c3 -7 6 -38 8 -68 l2 -55 -705 -257 c-388 -142 -716
-257 -730 -255 -23 2 -28 12 -56 112 -18 61 -39 153 -48 205 -19 107 -32 290
-23 314 6 14 80 16 777 16 607 0 772 -3 775 -12z m7959 -82 c9 -30 16 -58 16
-64 0 -13 -1378 -685 -1394 -679 -19 8 -82 163 -121 297 -40 139 -71 318 -58
331 8 8 1417 165 1510 168 30 1 32 -2 47 -53z m1566 -179 c617 -153 735 -185
738 -201 11 -56 -181 -509 -237 -560 -19 -18 -37 -7 -658 412 -559 376 -638
432 -636 453 3 42 22 79 40 79 10 0 349 -82 753 -183z m-9482 51 c10 -35 16
-68 13 -74 -11 -22 -1123 -949 -1141 -952 -35 -6 -177 202 -278 406 -49 101
-63 138 -56 150 8 12 1407 531 1436 532 3 0 15 -28 26 -62z m7987 -18 l37 -50
-49 -53 c-191 -209 -1021 -1057 -1034 -1057 -19 0 -154 150 -233 260 -65 91
-157 251 -153 265 3 9 1371 683 1389 685 3 0 23 -23 43 -50z m-7070 20 l120
-10 580 -211 c319 -116 586 -216 593 -223 10 -10 7 -24 -12 -71 -13 -33 -32
-65 -42 -71 -18 -11 -564 -104 -611 -104 -12 0 -175 130 -409 326 -447 374
-418 349 -410 363 9 13 37 14 191 1z m8393 -422 c345 -232 630 -426 634 -432
15 -22 -105 -177 -243 -315 -115 -116 -185 -170 -199 -155 -30 31 -900 1238
-900 1249 0 19 49 75 66 75 9 0 297 -190 642 -422z m-7803 382 c99 -6 316 -13
483 -17 193 -4 308 -10 317 -17 13 -10 12 -25 -10 -121 -32 -141 -54 -205 -71
-212 -12 -4 -955 332 -1007 359 -33 17 -7 29 51 23 32 -3 138 -10 237 -15z
m-577 -182 c482 -405 537 -452 537 -467 0 -13 -42 -23 -224 -53 -162 -27 -228
-34 -238 -27 -15 13 -364 616 -371 642 -4 18 51 87 70 87 4 0 106 -82 226
-182z m1977 97 c50 -104 134 -192 230 -242 41 -21 75 -41 75 -45 0 -4 -10 -10
-22 -13 -37 -8 -516 -85 -533 -85 -10 0 -15 9 -15 28 0 32 16 52 42 52 26 0
36 65 14 89 -24 26 -5 98 28 111 34 12 44 70 16 89 -20 13 -26 46 -12 67 8 14
39 21 99 23 l43 1 35 -75z m5201 -1 c24 -14 44 -29 44 -32 0 -16 -614 -1388
-627 -1402 -12 -13 -26 -9 -116 37 -56 29 -143 79 -193 113 -100 66 -244 185
-244 201 0 16 1061 1109 1077 1109 8 0 34 -12 59 -26z m924 -595 c270 -372
449 -627 446 -635 -14 -36 -300 -196 -467 -260 -76 -29 -94 -33 -104 -22 -14
14 -425 1441 -425 1473 0 19 60 64 87 65 6 0 214 -279 463 -621z m-8967 589
c12 -13 36 -32 52 -44 l29 -20 -363 -630 c-200 -346 -369 -635 -377 -643 -11
-12 -23 -8 -80 28 -37 23 -101 68 -143 99 -96 71 -293 262 -289 279 4 16 1119
953 1135 953 7 0 23 -10 36 -22z m582 -75 c245 -426 324 -568 317 -575 -13
-13 -342 -62 -351 -52 -9 9 -94 491 -106 596 l-6 57 38 20 c21 11 45 20 53 21
9 0 33 -29 55 -67z m7648 18 c8 -8 -3 -198 -53 -901 -5 -69 -16 -237 -26 -375
-11 -169 -21 -254 -29 -264 -27 -28 -374 37 -550 104 -39 14 -74 30 -79 35 -5
5 122 303 305 715 l314 707 55 -6 c30 -4 59 -11 63 -15z m170 -28 c133 -447
408 -1426 404 -1437 -14 -35 -344 -88 -523 -84 l-119 3 2 75 c1 41 21 338 43
660 23 322 44 630 47 685 3 55 10 108 14 117 9 17 32 24 86 27 30 1 33 -2 46
-46z m-8210 -31 c52 -24 51 -21 36 -109 l-11 -63 -178 -170 c-98 -94 -183
-184 -190 -200 -18 -44 -7 -107 25 -140 45 -47 77 -55 158 -42 39 7 74 9 79 4
10 -10 -115 -719 -129 -733 -35 -35 -588 151 -609 204 -5 13 687 1228 723
1269 9 10 21 14 31 9 10 -4 38 -17 65 -29z m110 -55 c16 -11 16 -14 2 -35 -23
-31 -45 -28 -45 6 0 43 13 52 43 29z m146 -129 c41 -201 71 -402 62 -411 -11
-11 -273 -56 -323 -57 -16 0 -28 4 -28 8 0 4 11 71 25 148 l24 139 59 55 c32
30 80 81 106 113 27 31 52 57 57 57 4 0 12 -24 18 -52z m-279 -238 c0 -16 -9
-76 -20 -132 -11 -57 -20 -104 -20 -105 0 -2 -4 -3 -9 -3 -5 0 -9 25 -9 55 1
45 -5 63 -27 95 -31 44 -31 43 30 89 50 38 55 38 55 1z m1869 -49 c-68 -122
-181 -281 -199 -281 -18 0 -295 242 -295 258 0 14 39 23 250 58 169 28 254 38
263 31 10 -8 5 -22 -19 -66z m-386 -162 c92 -77 167 -145 167 -150 0 -15 -167
-185 -250 -254 -97 -80 -207 -155 -228 -155 -25 0 -380 614 -359 621 18 6 450
77 472 78 25 1 60 -24 198 -140z m-695 24 c42 -62 342 -591 342 -604 0 -52
-560 -265 -596 -227 -12 14 -148 770 -141 791 2 7 66 23 158 38 204 35 213 35
237 2z m-424 -60 c20 -70 137 -776 129 -784 -20 -20 -147 -33 -343 -33 -232
-1 -300 6 -300 32 -1 42 124 728 135 740 12 13 260 59 332 61 32 1 43 -3 47
-16z"/>
<path d="M4390 6754 c-58 -2 -293 -8 -523 -13 -376 -8 -420 -11 -449 -28 -91
-53 -59 -81 181 -153 61 -19 104 -38 124 -57 20 -18 28 -22 24 -11 -9 26 3 28
89 13 144 -26 210 -21 364 30 115 37 162 47 294 61 186 19 201 16 160 -28 -28
-30 -28 -30 19 5 55 42 59 43 282 57 234 15 337 28 354 45 13 13 8 17 -33 35
-26 12 -86 25 -134 30 -97 11 -589 19 -752 14z"/>
<path d="M4584 6508 l-19 -23 23 19 c21 18 27 26 19 26 -2 0 -12 -10 -23 -22z"/>
<path d="M4534 6468 l-19 -23 23 19 c21 18 27 26 19 26 -2 0 -12 -10 -23 -22z"/>
<path d="M3805 6430 c21 -22 41 -40 44 -40 3 0 -13 18 -34 40 -21 22 -41 40
-44 40 -3 0 13 -18 34 -40z"/>
<path d="M3882 6364 c9 -9 21 -15 27 -13 6 2 -2 10 -17 17 -25 11 -25 11 -10
-4z"/>
<path d="M3968 6363 c6 -2 18 -2 25 0 6 3 1 5 -13 5 -14 0 -19 -2 -12 -5z"/>
</g>
</svg>
